<svg width="100" height="100" viewBox="0 0 113 92" fill="none" xmlns="http://www.w3.org/2000/svg">
  <path
    d="M108.419 13.142C107.805 12.107 106.468 11.7658 105.432 12.3803C104.397 12.9949 104.056 14.3325 104.67 15.3678C106.549 18.5325 107.547 22.0174 107.688 25.5143L105.487 22.0767C105.211 21.6457 104.793 21.3257 104.305 21.1722L92.876 17.5785L86.4167 7.48823C86.141 7.05746 85.7224 6.73744 85.2345 6.58397L81.4451 5.39261C84.642 4.6754 88.0182 4.67322 91.3115 5.47501C92.4812 5.76016 93.6602 5.04251 93.9453 3.87273C94.2302 2.70295 93.513 1.52379 92.343 1.23887C82.6325 -1.1262 72.3151 2.33104 66.0579 10.0451C58.945 18.8143 58.3499 31.0859 64.4128 40.4378L60.3031 45.8104C59.5718 46.7665 59.7538 48.1349 60.7099 48.8663L56.2381 54.7119L51.7668 48.8665L51.7672 48.8661C52.7235 48.1347 52.9058 46.7663 52.1742 45.8102L48.0645 40.4376C54.1277 31.0855 53.5325 18.8139 46.4195 10.0449C42.2143 4.86026 36.2217 1.54385 29.5462 0.70608C22.8719 -0.131252 16.2448 1.60053 10.8862 5.58271C5.27684 9.75171 1.65348 15.8559 0.683607 22.7712C-0.286486 29.6881 1.51614 36.552 5.75948 42.099C9.24528 46.6558 14.0077 49.856 19.532 51.3532C24.3408 52.6569 29.4921 52.5359 34.212 51.0326L38.323 56.4064C38.6742 56.8655 39.1937 57.1666 39.7668 57.2429C39.8627 57.2558 39.9589 57.2619 40.0546 57.2619C40.5307 57.2619 40.9968 57.1058 41.3789 56.8134L48.0045 65.4758L35.7892 81.4438C33.5983 84.3081 34.1459 88.4206 37.0102 90.6117C38.1628 91.4935 39.5431 91.9585 40.9702 91.9585C41.261 91.9585 41.5537 91.9391 41.8467 91.9001C43.5783 91.6694 45.1167 90.7785 46.1779 89.3909L56.2388 76.2391L66.2992 89.3909C67.5858 91.0719 69.5336 91.9552 71.5026 91.955C72.8886 91.955 74.2856 91.5171 75.4689 90.6117C76.8553 89.5492 77.7461 88.0112 77.9767 86.2805C78.2078 84.5481 77.7496 82.8298 76.6877 81.444L64.4721 65.476L71.0991 56.8132C71.4814 57.1058 71.9475 57.2619 72.4236 57.2619C72.5193 57.2619 72.6155 57.2555 72.7114 57.2429C73.2845 57.1666 73.8038 56.8658 74.155 56.4064L78.266 51.0326C82.9859 52.5359 88.1372 52.6569 92.946 51.3532C98.4701 49.8558 103.232 46.6558 106.718 42.099C109.92 37.9134 111.752 32.9286 112.014 27.6836C112.27 22.5635 111.027 17.5351 108.419 13.142ZM13.4869 9.08245C18.6118 5.27402 25.0367 4.128 30.954 5.41703L27.243 6.58376C26.7551 6.73723 26.3366 7.05725 26.0608 7.48801L19.6017 17.5783L8.17273 21.1722C7.68463 21.3257 7.26629 21.6457 6.99052 22.0767L4.80857 25.4857C4.83866 24.7847 4.90253 24.0812 5.00129 23.3768C5.80788 17.626 8.82149 12.5497 13.4869 9.08245ZM5.61626 32.3124L10.2361 25.094L21.6649 21.5003C22.1528 21.3468 22.5713 21.0268 22.8471 20.596L29.3062 10.5058L37.4211 7.95431C39.2519 9.03907 40.9379 10.4077 42.4026 12.0509L7.68594 37.1552C6.7928 35.6201 6.09978 33.9953 5.61626 32.3124ZM10.2461 40.6844L44.955 15.5858C46.0883 17.5423 46.8908 19.6353 47.3599 21.787L40.5187 23.9384C40.0308 24.0919 39.6125 24.4119 39.3367 24.8427L32.8774 34.9331L21.4486 38.5269C20.9605 38.6803 20.5422 39.0003 20.2664 39.4313L16.4081 45.4601C14.1134 44.2739 12.0167 42.6701 10.2461 40.6844ZM36.7109 47.1236C36.2891 46.5723 35.6434 46.268 34.9789 46.268C34.7121 46.268 34.4424 46.317 34.1828 46.4188C29.7369 48.1643 24.9468 48.3196 20.5422 47.0885L23.512 42.4482L34.9408 38.8545C35.4286 38.701 35.8472 38.381 36.123 37.9502L42.5823 27.8598L47.8543 26.2019C47.8927 30.7628 46.4888 35.3369 43.6184 39.2009C43.0383 39.9818 43.0459 41.0526 43.6369 41.8254L47.3872 46.728L40.4614 52.026L36.7109 47.1236ZM44.8414 54.1645L48.3041 51.5156L53.4937 58.3L50.7489 61.888L44.8414 54.1645ZM42.715 86.7422C41.9845 87.6968 40.6135 87.8793 39.6591 87.1492C38.7045 86.4187 38.5218 85.048 39.2521 84.0931L64.1733 51.5154L67.6362 54.1645L42.715 86.7422ZM73.2261 84.0946C73.5797 84.5561 73.7321 85.128 73.6553 85.7048C73.5782 86.2825 73.2808 86.7961 72.8184 87.1501C71.8645 87.8802 70.493 87.6968 69.7619 86.7416L58.9834 72.6512L61.7273 69.0641L73.2261 84.0946ZM78.295 46.4188C77.3888 46.0626 76.3579 46.3508 75.7669 47.1234L72.0166 52.026L65.0908 46.728L68.841 41.8254C69.4323 41.0528 69.4397 39.982 68.8596 39.2009C65.9894 35.3369 64.5855 30.7628 64.6239 26.2021L69.8959 27.86L76.3552 37.9505C76.631 38.3812 77.0493 38.7013 77.5372 38.8547L88.966 42.4484L91.9358 47.0885C87.5312 48.3196 82.7411 48.1643 78.295 46.4188ZM96.0699 45.4599L92.2114 39.4311C91.9354 39.0001 91.517 38.6801 91.0292 38.5266L79.6002 34.9329L73.1409 24.8424C72.8651 24.4117 72.4467 24.0916 71.9589 23.9382L65.1176 21.7867C65.587 19.6353 66.3892 17.5421 67.5226 15.5858L102.231 40.6844C100.461 42.6701 98.3644 44.2739 96.0699 45.4599ZM104.789 37.1535L70.0767 12.052C71.5281 10.4227 73.2069 9.04714 75.0414 7.9493L83.1718 10.5055L89.6311 20.5958C89.9069 21.0266 90.3252 21.3466 90.8131 21.5001L102.242 25.0938L106.864 32.3161C106.38 33.9879 105.686 35.612 104.789 37.1535Z"
    fill="white"
  />
  <path
    d="M100.291 9.51298C101.495 9.51298 102.471 8.53693 102.471 7.33291C102.471 6.12888 101.495 5.15283 100.291 5.15283C99.0874 5.15283 98.1113 6.12888 98.1113 7.33291C98.1113 8.53693 99.0874 9.51298 100.291 9.51298Z"
    fill="white"
  />
</svg>