<svg width="100" height="100" viewBox="0 0 154 123" fill="none" xmlns="http://www.w3.org/2000/svg">
  <path
    d="M143.668 97.6198C150.432 87.0253 154 74.4804 154 61.209C154 27.4583 130.418 0 101.432 0H52.5702C23.5828 0 0 27.4583 0 61.209C0 94.9596 23.5828 122.418 52.5702 122.418H101.432C114.2 122.418 126.372 117.082 135.952 107.344L142.95 114.342C144.113 115.508 145.662 116.15 147.311 116.15C148.959 116.15 150.508 115.508 151.67 114.343C154.074 111.939 154.074 108.026 151.67 105.622L143.668 97.6198ZM60.2128 4.51172H73.6024C65.8088 8.21524 58.9435 14.0339 53.537 21.3555H47.5827C46.3366 21.3555 45.3268 22.3655 45.3268 23.6113C45.3268 24.8572 46.3366 25.8672 47.5827 25.8672H50.5051C44.7665 35.2828 41.2579 46.6617 40.8732 58.9531H12.1967C12.6127 46.4728 16.4633 35.0173 22.6633 25.8672H37.9201C39.1662 25.8672 40.176 24.8572 40.176 23.6113C40.176 22.3655 39.1662 21.3555 37.9201 21.3555H26.0657C34.782 10.962 46.8704 4.51172 60.2128 4.51172ZM45.3458 61.2087C45.3458 38.8555 56.3688 19.4846 72.3373 10.2578C58.2003 21.24 48.8679 39.9783 48.8679 61.209C48.8679 82.4372 58.1982 101.173 72.3325 112.157C66.2537 108.643 60.8929 103.66 56.5836 97.6011C56.5321 97.5199 56.4774 97.4414 56.4163 97.368C49.5062 87.5466 45.3458 74.9406 45.3458 61.2087ZM50.5057 96.5508H22.6639C16.4636 87.4007 12.613 75.9452 12.1967 63.4648H40.8735C41.2582 75.7563 44.7671 87.1351 50.5057 96.5508ZM4.51172 61.209C4.51172 39.6135 14.7999 20.8017 29.8965 11.2309C16.4425 22.3273 7.64345 40.5934 7.64345 61.2084C7.64345 75.9018 12.1146 89.4012 19.5541 99.9631C19.6167 100.068 19.6861 100.167 19.7643 100.26C22.7156 104.397 26.125 108.076 29.9013 111.19C14.802 101.62 4.51172 82.8066 4.51172 61.209ZM60.2305 117.906C60.2245 117.906 60.2188 117.905 60.2131 117.905C46.871 117.905 34.7829 111.456 26.0666 101.062H53.5379C58.9447 108.384 65.8106 114.203 73.6045 117.906H60.2305ZM148.478 111.154C148.167 111.466 147.752 111.638 147.311 111.638C146.869 111.638 146.454 111.466 146.141 111.153L125.823 90.8347C124.942 89.9537 123.514 89.9537 122.633 90.8347C121.752 91.7157 121.752 93.1441 122.633 94.0248L126.381 97.7729C119.355 104.953 110.569 108.883 101.432 108.883C91.3704 108.883 81.7893 104.149 74.4536 95.5525C66.6826 86.4487 62.4031 74.2521 62.4031 61.209C62.4031 48.1659 66.6829 35.9692 74.4536 26.8658C81.7917 18.2695 91.3731 13.5352 101.432 13.5352C109.847 13.5352 117.869 16.7926 124.633 22.9547C125.554 23.7942 126.981 23.7277 127.82 22.8064C128.659 21.8854 128.593 20.4585 127.672 19.6197C120.063 12.6876 110.989 9.02344 101.432 9.02344C90.0313 9.02344 79.2312 14.3196 71.022 23.9365C62.5547 33.8559 57.8914 47.093 57.8914 61.209C57.8914 75.325 62.5547 88.562 71.022 98.4812C79.2285 108.098 90.0283 113.395 101.432 113.395C111.787 113.395 121.696 108.998 129.571 100.964L132.761 104.153C124.029 113.038 112.981 117.906 101.432 117.906C74.9357 117.906 53.3793 92.4719 53.3793 61.209C53.3793 29.9461 74.9357 4.51172 101.432 4.51172C127.93 4.51172 149.488 29.9461 149.488 61.209C149.488 73.2631 146.351 84.6585 140.395 94.3467L137.115 91.0666C142.263 82.313 144.977 72.032 144.977 61.209C144.977 48.7109 141.22 36.6291 134.398 27.1891C133.668 26.1791 132.259 25.9523 131.249 26.6817C130.239 27.4114 130.012 28.8215 130.741 29.8315C137.012 38.5087 140.465 49.6521 140.465 61.209C140.465 70.806 138.165 79.9191 133.804 87.7553L120.286 74.2376C121.065 70.591 120.044 66.6333 117.217 63.8059C112.782 59.3721 105.568 59.3721 101.134 63.8059C98.9862 65.9538 97.8035 68.8094 97.8035 71.847C97.8035 74.8846 98.9865 77.7402 101.134 79.8878C103.282 82.0357 106.138 83.2187 109.175 83.2187C109.991 83.2187 110.793 83.1305 111.572 82.9642L115.828 87.2196C116.268 87.66 116.846 87.8805 117.423 87.8805C118 87.8805 118.578 87.6603 119.019 87.2196C119.9 86.3387 119.9 84.9102 119.019 84.0296L115.962 80.9733C116.402 80.6449 116.821 80.283 117.217 79.8881C117.614 79.4908 117.974 79.0703 118.3 78.6323L148.48 108.812C149.125 109.457 149.125 110.507 148.478 111.154ZM114.026 76.6977C111.351 79.3723 106.999 79.3726 104.324 76.6977C103.028 75.4019 102.315 73.6794 102.315 71.847C102.315 70.0147 103.028 68.2921 104.324 66.9963C105.662 65.659 107.418 64.9904 109.175 64.9904C110.932 64.9904 112.689 65.659 114.026 66.9963C116.701 69.6712 116.701 74.0232 114.026 76.6977Z"
    fill="white"
  />
</svg>