<svg width="100" height="100" viewBox="0 0 99 121" fill="none" xmlns="http://www.w3.org/2000/svg">
  <path
    d="M95.9642 1.55115C93.4179 -0.97115 89.6768 -0.35148 87.7676 2.93079L64.4241 43.0542H64.4243C63.9982 43.7861 63.3156 44.2518 62.5509 44.3317C60.7216 44.5232 59.0686 45.6998 58.0161 47.5597C57.9979 47.592 57.9812 47.6251 57.9636 47.6574C56.1641 47.5036 54.3109 47.393 52.4337 47.3339C51.6431 47.3041 50.9814 48.0799 50.9611 49.0563C50.9408 50.0328 51.5671 50.8444 52.3601 50.8694C53.9114 50.9187 55.4479 51.0014 56.9474 51.1165C56.7467 53.5273 57.502 55.8829 58.9139 57.4707C62.6168 61.636 68.4815 58.8942 69.1654 52.9498C72.9832 53.86 76.1639 55.0201 78.4344 56.3363C80.598 57.5905 81.8895 58.9866 81.8895 60.0713C81.8895 63.7025 69.6003 69.3274 49.0059 69.3274C28.4545 69.3274 16.1226 63.7146 16.1226 60.0713C16.1226 58.9826 17.4222 57.5815 19.5993 56.3235C21.8842 55.0033 25.084 53.8411 28.9231 52.9309C29.6095 58.959 35.5179 61.5865 39.1771 57.4705C40.5757 55.8965 41.3391 53.548 41.1399 51.1104C42.6412 50.9962 44.1789 50.9146 45.7299 50.867C46.523 50.8425 47.1498 50.0311 47.1301 49.0547C47.1102 48.0783 46.4519 47.3157 45.6581 47.3308C43.7807 47.3888 41.9255 47.4977 40.1238 47.6503C40.1073 47.6201 40.0918 47.5892 40.0747 47.5593C39.0222 45.6991 37.3692 44.5225 35.5393 44.331C34.7752 44.2513 34.0924 43.7858 33.6667 43.0537L10.3232 2.93055C8.40841 -0.36044 4.66528 -0.964547 2.12659 1.55115C-0.424945 4.07864 -0.72428 8.71202 1.46644 11.7045L28.3026 48.3671C28.5227 48.6678 28.6866 49.0061 28.7967 49.3615C22.4429 50.826 13.2501 53.9958 13.2501 60.0713V107.936C13.2501 111.873 16.9934 115.071 24.3758 117.443C30.9729 119.562 39.7202 120.729 49.0061 120.729C62.7916 120.729 84.7624 117.461 84.7624 107.936V91.8263C84.7624 90.8494 84.1195 90.0578 83.3261 90.0578C82.5326 90.0578 81.8897 90.8494 81.8897 91.8263V101.28C81.8897 102.85 79.1882 105.302 73.1674 107.28L81.8897 75.3055V83.5735C81.8897 84.5504 82.5326 85.3419 83.3261 85.3419C84.1195 85.3419 84.7624 84.5504 84.7624 83.5735V60.0713C84.7624 54.0132 75.6121 50.8444 69.2889 49.3789C69.3988 49.0174 69.5649 48.6727 69.7884 48.3673L96.6246 11.7045C98.817 8.70942 98.5136 4.07652 95.9642 1.55115ZM3.60028 9.3364C2.51593 7.85584 2.66206 5.55991 3.92719 4.30689C5.19271 3.0534 7.04407 3.36819 7.98785 4.98999L31.331 45.1134L31.3312 45.1136C32.2476 46.6887 33.6929 47.688 35.2961 47.8554C38.1837 48.158 39.2891 52.5529 37.2392 54.8593C35.058 57.3144 31.3503 55.3042 31.7811 51.1865C31.9808 49.3296 31.4944 47.4444 30.4364 45.999L3.60028 9.3364ZM18.9202 74.4529C24.0303 77.1987 31.3682 78.6328 36.954 79.2959L27.2489 104.984L18.9202 74.4529ZM16.1226 75.3055L24.8448 107.28C18.824 105.302 16.1226 102.85 16.1226 101.28V75.3055ZM38.9377 82.432L46.9715 110.516C40.456 110.394 34.2995 109.683 29.1028 108.464L38.9377 82.432ZM41.2027 79.7026C43.7346 79.8889 46.3479 79.9849 49.0059 79.9849C51.664 79.9849 54.2773 79.8889 56.8092 79.7026L49.0059 106.981L41.2027 79.7026ZM59.0744 82.4315L68.9095 108.464C63.7126 109.683 57.5559 110.393 51.0406 110.516L59.0744 82.4315ZM61.0579 79.2959C66.6411 78.6333 73.9806 77.1994 79.0919 74.4529L70.7632 104.985L61.0579 79.2959ZM49.0059 72.8643C57.7853 72.8643 74.7595 71.4684 81.8895 65.4781V67.1921C81.8895 67.9997 81.2223 68.7389 80.7389 69.2376C79.3949 70.5477 76.842 72.0138 72.9112 73.2765C65.5762 75.6326 56.5579 76.4482 49.0059 76.4482C41.4563 76.4482 32.4376 75.6333 25.1009 73.2765C21.172 72.0145 18.6195 70.5493 17.2751 69.2395C15.9159 67.833 16.1226 67.5224 16.1226 65.4781C23.1944 71.4177 39.996 72.8643 49.0059 72.8643ZM81.8895 106.684V107.936C81.8895 111.572 69.5831 117.192 49.0059 117.192C28.4549 117.192 16.1226 111.579 16.1226 107.936V106.684C23.2137 112.643 40.3806 114.072 48.9964 114.073C48.9996 114.073 49.0029 114.073 49.0061 114.073C49.0094 114.073 49.0127 114.073 49.0159 114.073C57.6388 114.072 74.8003 112.641 81.8895 106.684ZM94.4905 9.3364L67.6544 45.9993C66.6278 47.4018 66.1393 49.2186 66.2935 51.0217C66.335 51.5081 66.5798 52.9642 65.6306 54.4167C64.4463 56.2285 62.2659 56.4511 60.8516 54.8595C59.6782 53.5395 59.445 51.2216 60.373 49.5815C60.9359 48.5869 61.8186 47.9578 62.7941 47.8559C64.3979 47.6883 65.8432 46.689 66.7596 45.1138C66.7596 45.1138 66.7596 45.1136 66.7598 45.1136L90.1031 4.99022C91.0479 3.36607 92.9002 3.05529 94.1636 4.30713C95.4251 5.55637 95.5781 7.85136 94.4905 9.3364Z"
    fill="white"
  />
  <path
    d="M47.5693 33.3741V39.1403C47.5693 40.1172 48.2122 40.9087 49.0057 40.9087C49.7991 40.9087 50.442 40.1172 50.442 39.1403V33.3741C50.442 32.3972 49.7991 31.6057 49.0057 31.6057C48.2122 31.6057 47.5693 32.3972 47.5693 33.3741Z"
    fill="white"
  />
  <path
    d="M38.2037 35.1694C37.5168 35.6577 37.2814 36.7393 37.678 37.5851L40.0198 42.5785C40.417 43.4253 41.2957 43.7136 41.9819 43.2258C42.6689 42.7374 42.9042 41.6558 42.5076 40.81L40.1658 35.8166C39.769 34.9706 38.8905 34.6813 38.2037 35.1694Z"
    fill="white"
  />
  <path
    d="M57.8458 35.8166L55.5042 40.81C55.1076 41.6558 55.3429 42.7374 56.0299 43.2258C56.7178 43.7143 57.5959 43.4236 57.9919 42.5785L60.3336 37.5851C60.7302 36.7393 60.4948 35.6577 59.8079 35.1694C59.1203 34.6813 58.2423 34.9706 57.8458 35.8166Z"
    fill="white"
  />
</svg>