<svg width="100" height="100" viewBox="0 0 146 109" fill="none" xmlns="http://www.w3.org/2000/svg">
  <path
    d="M72.7542 66.6184C97.8076 66.6184 145.191 62.8338 145.191 48.5093C145.191 36.6045 112.851 32.5758 96.3643 31.2926C93.7919 25.9326 81.682 24.7077 75.7722 24.4406V3.23654C75.7725 1.56824 74.4225 0.218262 72.7542 0.218262C71.0859 0.218262 69.736 1.56824 69.736 3.23654V24.4406C63.8265 24.7077 51.7163 25.9326 49.1439 31.2926C32.6573 32.5755 0.317871 36.6045 0.317871 48.5093C0.317871 62.8338 47.7009 66.6184 72.7542 66.6184Z"
    fill="white"
  />
  <path
    d="M138.73 64.4902C137.94 64.0539 136.985 64.007 136.154 64.3369C119.088 71.2104 92.2606 72.6546 72.7542 72.6546C53.2479 72.6546 26.4204 71.2104 9.35459 64.3369C8.52327 64.0067 7.5683 64.0539 6.77857 64.4902C2.49323 66.8393 0.317871 69.5862 0.317871 72.6546C0.317871 86.4325 44.0974 90.4482 69.736 90.7357V105.855C69.736 107.523 71.0859 108.873 72.7542 108.873C74.4225 108.873 75.7725 107.523 75.7725 105.855V90.7357C101.411 90.4482 145.191 86.4325 145.191 72.6546C145.191 69.5862 143.016 66.8393 138.73 64.4902Z"
    fill="white"
  />
</svg>