<svg width="100" height="100" viewBox="0 0 93 140" fill="none" xmlns="http://www.w3.org/2000/svg">
  <path
    d="M52.2509 105.669H52.5487C54.0532 105.669 55.2732 104.449 55.2732 102.945V90.9569C55.2732 89.4522 54.0532 88.2324 52.5487 88.2324H49.3136V72.0159C49.3136 70.5111 48.0936 69.2914 46.5891 69.2914C45.0847 69.2914 43.8646 70.5111 43.8646 72.0159V88.2324H40.5606C39.0561 88.2324 37.8361 89.4522 37.8361 90.9569V102.945C37.8361 104.449 39.0561 105.669 40.5606 105.669H40.9276L17.3819 135.159C16.443 136.335 16.6351 138.049 17.811 138.988C18.3131 139.389 18.9131 139.584 19.5089 139.584C20.3094 139.584 21.1019 139.233 21.6398 138.559L34.2676 122.743L44.6624 133.138C45.1944 133.67 45.8916 133.936 46.5888 133.936C47.286 133.936 47.9833 133.67 48.5153 133.138L58.9101 122.743L71.5379 138.559C72.076 139.233 72.8686 139.584 73.6688 139.584C74.2649 139.584 74.8651 139.389 75.367 138.988C76.5429 138.049 76.7349 136.335 75.7961 135.159L52.2509 105.669ZM43.2851 93.6814H49.8239V100.22H43.2851V93.6814ZM43.8646 110.723V124.634L37.689 118.458L43.8646 110.723ZM49.3136 124.634V110.723L55.4893 118.458L49.3136 124.634Z"
    fill="white"
  />
  <path
    d="M2.99721 26.4097H90.1813C91.6858 26.4097 92.9058 25.19 92.9058 23.6852C92.9058 22.1805 91.6858 20.9607 90.1813 20.9607H70.5859C67.496 20.9607 64.7211 19.2424 63.3433 16.4768C61.0378 11.8481 56.3939 8.97293 51.2234 8.97293H49.3138V2.97902C49.3138 1.47428 48.0937 0.254517 46.5893 0.254517C45.0848 0.254517 43.8647 1.47428 43.8647 2.97902V8.97293H41.9551C36.7846 8.97293 32.1407 11.8481 29.8352 16.4768C28.4574 19.2424 25.6825 20.9607 22.5926 20.9607H2.99721C1.49274 20.9607 0.272705 22.1805 0.272705 23.6852C0.272705 25.19 1.49274 26.4097 2.99721 26.4097ZM34.7126 18.9062C36.0904 16.1403 38.8656 14.4219 41.9551 14.4219H51.2234C54.3132 14.4219 57.0881 16.1403 58.4659 18.9062C58.8296 19.6364 59.2517 20.3224 59.7246 20.9607H33.4542C33.9269 20.3224 34.3492 19.6361 34.7126 18.9062Z"
    fill="white"
  />
  <path
    d="M90.1811 33.0751H2.99696C1.49249 33.0751 0.272461 34.2948 0.272461 35.7996C0.272461 37.3043 1.49249 38.5241 2.99696 38.5241H22.5924C25.6823 38.5241 28.4572 40.2424 29.8349 43.0081C32.1404 47.6367 36.7846 50.5119 41.9549 50.5119H51.2231C56.3934 50.5119 61.0376 47.6367 63.3431 43.0081C64.7208 40.2424 67.496 38.5241 70.5856 38.5241H90.1811C91.6855 38.5241 92.9056 37.3043 92.9056 35.7996C92.9056 34.2948 91.6858 33.0751 90.1811 33.0751ZM58.4657 40.5789C57.0879 43.3445 54.313 45.0629 51.2231 45.0629H41.9549C38.865 45.0629 36.0901 43.3445 34.7124 40.5789C34.3486 39.8487 33.9266 39.1627 33.4536 38.5241H59.7241C59.2514 39.1624 58.8294 39.8487 58.4657 40.5789Z"
    fill="white"
  />
  <path
    d="M46.5536 62.6261C47.2729 62.6261 47.9731 62.3346 48.4796 61.8279C48.989 61.3211 49.2781 60.6182 49.2781 59.9016C49.2781 59.1851 48.989 58.4822 48.4796 57.9754C47.9731 57.4686 47.2699 57.1771 46.5536 57.1771C45.8373 57.1771 45.1341 57.4686 44.6274 57.9754C44.1206 58.4822 43.8291 59.1851 43.8291 59.9016C43.8291 60.6182 44.1204 61.3211 44.6274 61.8279C45.1341 62.3346 45.8371 62.6261 46.5536 62.6261Z"
    fill="white"
  />
</svg>