<svg width="100" height="110" viewBox="0 0 92 116" fill="none" xmlns="http://www.w3.org/2000/svg">
  <path
    d="M31.781 115.315C30.4604 115.315 29.3886 114.243 29.3886 112.922V108.76C29.3886 107.281 28.9388 105.86 28.0919 104.645L23.2735 97.7687C20.4648 93.7494 18.0867 89.5244 16.2063 85.218C13.8377 79.7968 8.72751 69.5572 1.05259 61.8774C0.789424 61.6143 0.593244 61.2937 0.473622 60.9444C0.368355 60.6334 -0.488135 57.8151 1.49758 55.059C3.62206 52.1163 8.0672 50.6187 14.7038 50.6187C20.905 50.6187 25.8047 54.6188 29.0584 58.4132V14.7274C29.0584 9.44969 33.3504 5.15767 38.6281 5.15767C40.5995 5.15767 42.4273 5.75577 43.9489 6.77974C45.2599 3.05233 48.8151 0.372803 52.9827 0.372803C57.1503 0.372803 60.7055 3.05233 62.0165 6.77974C63.5381 5.75577 65.3707 5.15767 67.3373 5.15767C72.615 5.15767 76.907 9.44969 76.907 14.7274V25.5843C78.3138 24.766 79.9502 24.2971 81.6919 24.2971C87.2041 24.2971 91.4961 28.5891 91.4961 33.8669V67.3609L91.0607 76.6531C90.5774 86.8736 86.6777 96.7974 80.0746 104.601C79.0219 105.846 78.4382 107.434 78.4382 109.066V112.918C78.4382 114.238 77.3664 115.31 76.0458 115.31C74.7251 115.31 73.6533 114.238 73.6533 112.918V109.066C73.6533 106.305 74.639 103.621 76.419 101.51C82.3474 94.5102 85.8499 85.6056 86.2806 76.433L86.7112 67.2508V33.8669C86.7112 31.2256 84.5628 29.082 81.9264 29.082C79.0554 29.082 76.907 31.2256 76.907 33.8669V62.576C76.907 63.8967 75.8352 64.9685 74.5146 64.9685C73.194 64.9685 72.1222 63.8967 72.1222 62.576V14.7274C72.1222 12.0862 69.9738 9.94253 67.3373 9.94253C64.7008 9.94253 62.5524 12.0862 62.5524 14.7274V62.576C62.5524 63.8967 61.4806 64.9685 60.16 64.9685C58.8394 64.9685 57.7676 63.8967 57.7676 62.576V9.94253C57.7676 7.30129 55.6192 5.15767 52.9827 5.15767C50.3463 5.15767 48.1978 7.30129 48.1978 9.94253V62.576C48.1978 63.8967 47.126 64.9685 45.8054 64.9685C44.4848 64.9685 43.413 63.8967 43.413 62.576V14.7274C43.413 12.0862 41.2646 9.94253 38.6281 9.94253C35.9917 9.94253 33.8433 12.0862 33.8433 14.7274V66.1647C33.8433 67.27 33.0777 68.2365 32.0011 68.4901C30.9245 68.7437 29.8096 68.2222 29.312 67.2269C29.2498 67.1121 23.2926 55.394 14.7038 55.394C7.98586 55.394 5.97143 57.0734 5.42117 57.7912C5.06709 58.2505 4.98575 58.7146 4.98096 59.0448C12.5028 66.7771 17.6082 76.4617 20.5892 83.2945C22.3452 87.3186 24.5654 91.2613 27.1923 95.0174L32.0107 101.893C33.4222 103.917 34.1734 106.291 34.1734 108.755V112.918C34.1734 114.243 33.1016 115.315 31.781 115.315Z"
    fill="white"
  />
</svg>